<?xml version="1.0" encoding="UTF-8" standalone="no"?>
<!-- Created with Inkscape (http://www.inkscape.org/) -->

<svg
   width="1000"
   height="500"
   viewBox="0 0 1000 500.00002"
   version="1.1"
   id="svg1"
   xml:space="preserve"
   inkscape:version="1.3.2 (091e20ef0f, 2023-11-25, custom)"
   sodipodi:docname="steeples.svg"
   xmlns:inkscape="http://www.inkscape.org/namespaces/inkscape"
   xmlns:sodipodi="http://sodipodi.sourceforge.net/DTD/sodipodi-0.dtd"
   xmlns="http://www.w3.org/2000/svg"
   xmlns:svg="http://www.w3.org/2000/svg"><sodipodi:namedview
     id="namedview1"
     pagecolor="#505050"
     bordercolor="#eeeeee"
     borderopacity="1"
     inkscape:showpageshadow="0"
     inkscape:pageopacity="0"
     inkscape:pagecheckerboard="0"
     inkscape:deskcolor="#d1d1d1"
     inkscape:document-units="px"
     inkscape:zoom="0.5"
     inkscape:cx="420"
     inkscape:cy="267"
     inkscape:window-width="1920"
     inkscape:window-height="1054"
     inkscape:window-x="0"
     inkscape:window-y="0"
     inkscape:window-maximized="0"
     inkscape:current-layer="layer1"
     showgrid="false" /><defs
     id="defs1" /><g
     inkscape:label="Layer 1"
     inkscape:groupmode="layer"
     id="layer1"><path
       id="path1"
       style="fill:#b1ae73;fill-opacity:1;stroke:#b6d8fc;stroke-width:3.012;stroke-linecap:round;stroke-linejoin:round;stroke-dasharray:none;stroke-opacity:0.50150865;paint-order:markers fill stroke"
       d="M 920.78125 -11.054688 L 920.37695 -2.5410156 L 925.71289 -2.5488281 L 920.78125 -11.054688 z M 925.71289 -2.5488281 L 931.98242 8.2617188 L 936.4668 17.162109 L 935.375 26.900391 L 932.41211 33.330078 L 934.17188 41.277344 L 928.55469 46.287109 L 927.18555 52.052734 L 931.01172 54.628906 L 932.78125 68.882812 L 938.58789 68.882812 L 937.4668 60.388672 L 940.09961 59.535156 L 941.90039 71.226562 L 944.95898 70.560547 L 943.33398 44.787109 C 943.33398 44.787109 949.20953 58.310905 949.55664 57.158203 C 949.90376 56.005502 958.19336 28.5 958.19336 28.5 L 974.77148 57.583984 L 974.5293 42.304688 L 979.00195 39.578125 L 981.39258 -2.6367188 L 925.71289 -2.5488281 z M 920.37695 -2.5410156 L -7.3320312 -1.0820312 L -6.6132812 105.09375 L 1.3710938 99.751953 C 1.3710938 98.479197 2.6953125 94.587891 2.6953125 94.587891 L 3.796875 99.005859 L 7.4765625 92.177734 L 9.2304688 91.654297 L 14.595703 70.498047 L 16.759766 90.402344 L 20.759766 67.857422 L 22.117188 92.746094 L 31.345703 60.880859 L 35.216797 96.164062 L 34.783203 106.24609 L 76.914062 101.30664 L 80.041016 90.923828 L 81 100.75586 L 87.386719 100.08789 L 97.894531 30.666016 L 97.048828 98.476562 L 118.45898 96.115234 L 125.44336 107.9082 L 127.33008 97.542969 L 136.11914 97.400391 L 141.32422 83.007812 L 139.66797 80.53125 L 143.48242 74.626953 L 147.07031 57.646484 L 147.70508 74.582031 L 150.18164 82.925781 L 148.12891 83.972656 L 151.32227 98.824219 L 160.19922 104.03711 L 160.4043 110.72266 L 155.7793 117.23828 L 154.12109 121.78906 L 153.44727 140.79102 L 163.18164 148.64648 L 165.7793 146.67773 L 169.24805 170.5332 L 186.18359 143.54102 C 186.18359 143.54102 203.5918 144.0425 203.5918 142.67578 C 203.5918 141.30907 205.38672 126.60938 205.38672 126.60938 L 207.79688 115.79492 L 210.22266 126.52539 L 210.50195 132.99219 L 218.71484 131.0625 L 221.81836 123.63281 L 223.64844 129.45117 L 226.53906 114.44336 L 229.47461 124.39453 L 229.17969 133.34375 L 235.72461 123.5918 L 242.45703 94.369141 L 246.67773 118.03906 L 250.47266 118.90234 L 255.08789 137.22266 L 261.44922 137.32812 L 264.64453 125.7168 L 267.27148 137.16016 C 267.27148 137.16016 270.33606 138.63793 269.88281 137.11719 C 269.42956 135.5965 270.23047 122.75781 270.23047 122.75781 L 274.48047 113.85156 L 277.1582 121.96875 L 277.57031 139.78906 L 279.40234 139.41797 L 280.34961 128.4668 L 284.2793 127.01953 L 284.48828 118.50977 L 288.18164 111.07617 L 293.02734 119.08594 L 292.76562 127.96484 L 296.69531 130.21094 L 297.08984 139.31641 L 308.77344 138.21875 L 308.77344 118.77344 L 306.11133 117.61719 L 306.11328 108.88477 L 309.37891 107.79688 L 311.33203 100.98242 L 313.92969 107.23633 C 313.92969 107.23633 318.58594 109.15246 318.58594 107.29688 C 318.58594 105.44124 318.80859 92.527344 318.80859 92.527344 L 321.88281 74.919922 L 324.83398 93.132812 L 324.95898 107.61719 L 328.76172 107.85352 L 329.55859 102.60352 L 331.42578 108.16797 L 334.88086 109.27148 L 334.82617 119.82812 L 331.75781 120.87305 L 330.56836 139.9082 L 336.70898 149.14453 L 335.72266 151.98047 L 335.09375 169.86719 L 340.28516 187.38477 C 340.28516 187.38477 346.99013 190.89866 347.43555 188.42188 C 347.88098 185.9451 352.23047 162.04883 352.23047 162.04883 L 355.9082 188.39258 L 359.48047 181.89453 L 360.59375 198.26367 L 362.4375 188.18164 L 363.54102 196.45703 L 364.86328 182.33398 C 364.86328 182.33398 367.04455 183.75756 366.81836 180.90234 C 366.59217 178.04712 366.55273 165.72852 366.55273 165.72852 L 371.26562 159.99219 L 369.70703 150.81836 L 366.85938 145.42773 L 371.87305 140.82617 L 375.11523 138.60938 L 375.76367 131.45508 L 376.43164 124.58203 L 378.20898 114.77148 L 379.27539 125.50391 L 379.91797 131.05469 L 380.5957 139.33984 L 382.76172 143.17969 L 386.3418 144.48633 L 386.33203 150.78906 L 383.77148 150.86133 L 382.59766 161.5625 L 383.37109 165.00391 L 385.20898 157.35547 L 386.81836 165.43945 L 390.07422 171.82812 L 392.38086 175.44727 L 393.42969 185.85352 C 393.42969 185.85352 395.125 186.59427 395.125 188.04102 C 395.125 189.48776 393.42969 210.07422 393.42969 210.07422 C 393.42969 210.07422 400.26247 212.38519 399.42383 210.60352 C 398.58518 208.82183 400.15625 201.34906 400.15625 200.21289 C 400.15625 199.07671 400.37891 194.25977 400.37891 194.25977 L 407.72852 188.93164 L 416.55859 194.75977 C 416.55859 194.75977 415.42275 214.23047 417.0957 214.23047 C 418.76864 214.23047 434.30078 213.46289 434.30078 213.46289 L 442.97266 213.3125 L 442.91406 180.57227 L 438.94922 178.66797 L 438.28125 168.33789 L 449.75195 163.53125 C 449.75195 163.53125 453.28241 145.73647 453.64258 146.66211 C 454.00274 147.58775 459.40625 163.5918 459.40625 163.5918 L 472.03125 167.54102 L 471.98438 176.21875 L 472.23242 174.92578 L 473.71875 169.35938 L 474.83789 163.61133 L 473.61133 160.63086 L 475.31055 159.33203 L 478.50586 156.36719 L 479.57227 151.73438 L 482.04883 142.97656 L 483.96094 137.40625 L 485.82422 132.77539 L 491.18359 130.57617 L 490.24414 129.35547 L 487.01172 129.35547 L 493.95898 123.77344 L 493.52539 121.16602 L 494.06836 115.50977 L 495.64062 113.50586 L 495.51758 119.64453 L 497.31445 117.67969 L 499.86719 116.14844 L 504 117.62891 L 504.56445 114.63867 L 505.51172 119.17773 L 505.21875 123.88672 L 508.33203 127.00977 L 508.79492 129.26953 L 512.65625 131.79297 L 516.32031 137.98047 L 517.49219 148.37695 L 521.19922 157.93555 L 524.46094 159.94531 L 522.85352 162.82227 L 526.72461 177.21094 L 525.51562 178.21875 L 526.57031 182.23633 L 526.91406 184.01367 L 529.4043 189.29883 L 533.20312 201.75391 L 536.28711 200.14453 L 544.0957 212.69141 C 550.35253 212.71928 563.59375 212.75391 563.59375 212.75391 L 563.31445 192.91992 C 563.31445 192.91992 556.30238 192.42004 557.25586 191.67188 C 558.20934 190.92371 563.79492 188.03516 563.79492 188.03516 L 592.32617 187.20703 L 593.12695 180.46094 C 593.12695 180.46094 600.27443 171.65161 599.42969 170.69727 C 598.58496 169.74292 597.93945 161.94336 597.93945 161.94336 L 599.16211 159.47461 L 601.03711 142.38086 L 602.07812 160.03711 L 603.32617 162.16602 L 603.94531 166.76758 L 603.36914 171.44727 L 607.51367 179.78516 C 607.51367 179.78516 609.05469 180.40428 609.05469 179.42383 C 609.05469 178.44338 610.28791 171.02055 609.22656 168.77344 C 608.1652 166.52632 607.29102 160.83203 607.29102 160.83203 L 609.92383 165.73047 L 609.69727 159.08984 L 611.15039 156.92969 L 616.06836 121.05664 L 623.04883 158.85938 L 626.10547 153.20312 L 628.17188 142.60352 C 628.17188 142.60352 630.7207 149.69675 630.7207 148.74414 C 630.7207 147.79153 635.01367 142.875 635.01367 142.875 L 637.92773 114.9082 L 641.13477 141.61133 L 643.56445 127.01758 L 645.58984 142.83594 L 648.27539 144.375 L 649.4707 145.98047 C 649.4707 145.98047 653.1875 148.11 653.1875 146.73633 C 653.1875 145.36265 652.96484 137.58984 652.96484 137.58984 L 659.19727 117.51758 L 661.80859 126.8125 C 661.80859 126.8125 677.82031 126.19307 677.82031 125.24219 C 677.82031 124.29132 678.71289 102.47266 678.71289 102.47266 L 681.64453 118.86523 L 685.51758 124.5332 L 699.79297 121.87695 L 702.01562 71.306641 L 706.54297 97.935547 L 710.08789 70.314453 L 714.45508 87.957031 L 714.39453 55.050781 L 715.93555 54.691406 C 715.93555 54.691406 717.67482 73.132755 718.60742 71.179688 C 719.54002 69.22662 725.61328 30.820313 725.61328 30.820312 L 735.49609 64.519531 L 736.6543 54.597656 C 736.6543 54.597656 738.79329 53.956319 739.04297 57.25 C 739.29265 60.543681 742.61719 84.820391 742.61719 81.617188 C 742.61719 78.413983 741.50391 64.759766 741.50391 64.759766 L 745.13477 65.416016 C 745.13477 65.416016 746.64648 81.810547 746.64648 80.623047 C 746.64648 79.435547 747.31445 75.208984 747.31445 75.208984 L 758.58594 98.347656 L 759.5332 70.099609 C 759.5332 70.099609 764.01092 99.422802 764.47461 96.625 C 764.9383 93.827199 764.20117 58.662109 764.20117 58.662109 C 764.20117 58.662109 765.90505 69.905096 766.54883 68.253906 C 767.1926 66.602716 770.18359 36.767578 770.18359 36.767578 L 779.27734 64.939453 L 781.58789 55.466797 L 783.79297 56.720703 L 787.05469 88.183594 L 787.81055 62.800781 L 793.6875 93.011719 L 799.84766 90.482422 L 801.57031 21.986328 L 800.65234 18.943359 L 802.25391 8.9003906 L 805.98047 17.433594 L 804.87695 22.082031 C 804.87695 22.082031 813.86323 71.635405 814.08594 70.453125 C 814.30865 69.270845 816.51953 65.119141 816.51953 65.119141 C 816.51953 65.119141 822.07134 81.250323 821.60156 78.925781 C 821.13178 76.60124 822.56836 71.712891 822.56836 71.712891 L 825.81055 86.878906 L 850.30078 84.027344 L 847.8125 77.697266 C 847.8125 77.697266 845.20781 81.430767 844.56055 79.255859 C 843.9133 77.080952 840.74609 67.667969 840.74609 67.667969 L 836.875 64.28125 L 835.63477 52.314453 L 842.13086 20.037109 L 847.57617 33.951172 L 848.44141 26.976562 L 846.06055 24.425781 L 848.85742 22.177734 L 853.70508 -0.41601562 L 864.14062 18.939453 L 867.16797 24.246094 L 889.13477 15.148438 L 905.54883 16.632812 L 908.79492 0.49023438 L 915.7832 12.794922 L 919.80859 9.4335938 L 920.37695 -2.5410156 z M 485.29492 166.95117 L 479.29102 181.88867 L 479.12305 184.08008 L 480.53711 184.71289 L 478.81445 187.05273 L 476.67578 189.1543 L 475.75781 194.75391 L 475.10156 197.02344 L 475.9668 198.70898 L 474.61914 203.33398 L 475.28711 203.08789 C 475.28711 203.08789 474.68448 205.53349 474.64258 205.76172 C 474.60576 205.99096 473.83713 206.24783 473.64453 206.33203 C 473.45193 206.41423 473.70703 209.15234 473.70703 209.15234 C 473.70703 209.15234 473.24747 211.65643 473.01172 212.98242 C 473.15131 212.97718 473.32229 212.97188 473.4707 212.9668 L 474.15039 211.07031 L 480.74609 192.45508 L 481.8457 187.76367 L 482.38672 182.23828 L 483.52734 176.23633 L 484.09766 171.73242 L 485.29492 166.95117 z M 471.97266 178.375 L 471.9668 179.40234 L 465.99414 181.52539 C 465.99414 181.52539 466.07708 186.99282 466.17773 191.19727 L 468.06641 187.86719 L 470.04492 187.83398 L 471.59961 184.66797 L 473.11719 185.44141 L 472.83984 179.59961 L 471.97266 178.375 z M 516.96094 183.06836 L 519.36719 192.68945 L 521.08789 203.33594 L 524.47461 210.63672 L 525.32422 212.63281 C 525.88179 212.63416 525.94089 212.6353 526.49219 212.63672 L 525.55273 207.77539 L 524.86719 207.0957 L 526.13867 202.4043 L 528.56445 200.93555 L 527.8125 192.50586 L 525.06836 187.59961 L 524.29297 187.50391 L 520.33203 186.39648 L 519.99414 183.99805 L 516.96094 183.06836 z M 498.85938 196.47266 L 497.49805 212.6543 C 498.62816 212.65088 499.67674 212.64701 500.83594 212.64453 L 498.85938 196.47266 z M 466.3457 200.01562 C 466.38169 201.73418 466.38524 202.03935 466.41211 203.51953 L 467.25586 200.81055 L 466.3457 200.01562 z M 481.26367 209.30859 L 479.18359 212.7832 C 481.14467 212.75636 482.01269 212.71429 484.35547 212.69531 L 484.30664 211.32812 L 481.26367 209.30859 z " /><path
       id="path6"
       style="fill:#d3d8db;fill-opacity:1;stroke:#b6d8fc;stroke-width:3.012;stroke-linecap:round;stroke-linejoin:round;stroke-dasharray:none;stroke-opacity:0.504044;paint-order:markers fill stroke"
       d="M 500 29.285156 A 108.25137 108.25137 0 0 0 391.74805 137.53711 A 108.25137 108.25137 0 0 0 405.80273 190.32812 L 407.72852 188.93164 L 416.55859 194.75977 C 416.55859 194.75977 416.25274 200.5047 416.2207 205.79492 A 108.25137 108.25137 0 0 0 423.69922 213.93555 C 428.6171 213.71191 434.30078 213.46289 434.30078 213.46289 L 442.97266 213.3125 L 442.91406 180.57227 L 438.94922 178.66797 L 438.28125 168.33789 L 449.75195 163.53125 C 449.75195 163.53125 453.28241 145.73647 453.64258 146.66211 C 454.00274 147.58775 459.40625 163.5918 459.40625 163.5918 L 472.03125 167.54102 L 471.98438 176.21875 L 472.23242 174.92578 L 473.71875 169.35938 L 474.83789 163.61133 L 473.61133 160.63086 L 475.31055 159.33203 L 478.50586 156.36719 L 479.57227 151.73438 L 482.04883 142.97656 L 483.96094 137.40625 L 485.82422 132.77539 L 491.18359 130.57617 L 490.24414 129.35547 L 487.01172 129.35547 L 493.95898 123.77344 L 493.52539 121.16602 L 494.06836 115.50977 L 495.64062 113.50586 L 495.51758 119.64453 L 497.31445 117.67969 L 499.86719 116.14844 L 504 117.62891 L 504.56445 114.63867 L 505.51172 119.17773 L 505.21875 123.88672 L 508.33203 127.00977 L 508.79492 129.26953 L 512.65625 131.79297 L 516.32031 137.98047 L 517.49219 148.37695 L 521.19922 157.93555 L 524.46094 159.94531 L 522.85352 162.82227 L 526.72461 177.21094 L 525.51562 178.21875 L 526.57031 182.23633 L 526.91406 184.01367 L 529.4043 189.29883 L 533.20312 201.75391 L 536.28711 200.14453 L 544.16016 212.79492 C 550.30505 212.83066 563.44531 212.88281 563.44531 212.88281 L 563.31445 192.91992 C 563.31445 192.91992 556.30238 192.42003 557.25586 191.67188 C 558.20934 190.92371 563.79492 188.03516 563.79492 188.03516 L 592.32617 187.20703 L 593.12695 180.46094 C 593.12695 180.46094 600.27443 171.6516 599.42969 170.69727 C 598.58496 169.74292 597.93945 161.94336 597.93945 161.94336 L 599.16211 159.47461 L 601.03711 142.38086 L 602.07812 160.03711 L 603.32617 162.16602 L 603.94531 166.76758 L 603.74414 168.40234 A 108.25137 108.25137 0 0 0 608.25195 137.53711 A 108.25137 108.25137 0 0 0 500 29.285156 z M 485.29492 166.95117 L 479.29102 181.88867 L 479.12305 184.08008 L 480.53711 184.71289 L 478.81445 187.05273 L 476.67578 189.1543 L 475.75781 194.75391 L 475.10156 197.02344 L 475.9668 198.70898 L 474.61914 203.33398 L 475.28711 203.08789 C 475.28711 203.08789 474.68448 205.53349 474.64258 205.76172 C 474.60576 205.99096 473.83713 206.24783 473.64453 206.33203 C 473.45193 206.41423 473.70703 209.15234 473.70703 209.15234 C 473.70703 209.15234 473.28086 211.48131 473.03516 212.85547 C 473.1709 212.85253 473.3739 212.85052 473.51367 212.84766 L 474.15039 211.07031 L 480.74609 192.45508 L 481.8457 187.76367 L 482.38672 182.23828 L 483.52734 176.23633 L 484.09766 171.73242 L 485.29492 166.95117 z M 471.97266 178.375 L 471.9668 179.40234 L 465.99414 181.52539 C 465.99414 181.52539 466.12674 187.11584 466.22266 191.11914 L 468.06641 187.86719 L 470.04492 187.83398 L 471.59961 184.66797 L 473.11719 185.44141 L 472.83984 179.59961 L 471.97266 178.375 z M 516.96094 183.06836 L 519.36719 192.68945 L 521.08789 203.33594 L 524.47461 210.63672 L 525.35742 212.71094 C 525.90599 212.71301 525.96541 212.71466 526.50781 212.7168 L 525.55273 207.77539 L 524.86719 207.0957 L 526.13867 202.4043 L 528.56445 200.93555 L 527.8125 192.50586 L 525.06836 187.59961 L 524.29297 187.50391 L 520.33203 186.39648 L 519.99414 183.99805 L 516.96094 183.06836 z M 498.85938 196.47266 L 497.49414 212.69531 C 498.62799 212.69341 499.67874 212.69037 500.8418 212.68945 L 498.85938 196.47266 z M 466.42578 200.08594 C 466.4505 201.24022 466.46655 202.18809 466.48828 203.27344 L 467.25586 200.81055 L 466.42578 200.08594 z M 481.26367 209.30859 L 479.19727 212.75977 C 480.81067 212.74219 482.51356 212.7312 484.35742 212.71875 L 484.30664 211.32812 L 481.26367 209.30859 z " /></g></svg>
